{
	"asset":{
		"generator":"Khronos glTF Blender I/O v4.3.47",
		"version":"2.0"
	},
	"scene":0,
	"scenes":[
		{
			"name":"Scene",
			"nodes":[
				7
			]
		}
	],
	"nodes":[
		{
			"mesh":0,
			"name":"defaultMaterial"
		},
		{
			"children":[
				0
			],
			"name":"OldStreetLight"
		},
		{
			"mesh":1,
			"name":"defaultMaterial.002"
		},
		{
			"children":[
				2
			],
			"name":"StreepLampTop"
		},
		{
			"mesh":2,
			"name":"defaultMaterial.001"
		},
		{
			"children":[
				4
			],
			"name":"WhiteSidingWindow"
		},
		{
			"children":[
				1,
				3,
				5
			],
			"name":"Collada visual scene group",
			"rotation":[
				0.70710688829422,
				0,
				0,
				0.7071066498756409
			]
		},
		{
			"children":[
				6
			],
			"name":"Sketchfab_model",
			"rotation":[
				-0.7071069478988647,
				0,
				0,
				0.7071066498756409
			],
			"scale":[
				0.03500000014901161,
				0.03500000387430191,
				0.03500000387430191
			],
			"translation":[
				0,
				4.369999885559082,
				0
			]
		}
	],
	"materials":[
		{
			"doubleSided":true,
			"name":"OldStreetLight",
			"normalTexture":{
				"index":0
			},
			"pbrMetallicRoughness":{
				"baseColorTexture":{
					"index":1
				},
				"metallicRoughnessTexture":{
					"index":2
				}
			}
		},
		{
			"doubleSided":true,
			"name":"StreepLampTop",
			"normalTexture":{
				"index":3
			},
			"pbrMetallicRoughness":{
				"baseColorTexture":{
					"index":4
				},
				"metallicRoughnessTexture":{
					"index":5
				},
				"roughnessFactor":0.5489256381988525
			}
		},
		{
			"alphaMode":"BLEND",
			"doubleSided":true,
			"emissiveFactor":[
				1,
				1,
				1
			],
			"emissiveTexture":{
				"index":6
			},
			"name":"WhiteSidingWindow",
			"normalTexture":{
				"index":7
			},
			"pbrMetallicRoughness":{
				"baseColorTexture":{
					"index":8
				},
				"metallicRoughnessTexture":{
					"index":9
				}
			}
		}
	],
	"meshes":[
		{
			"name":"defaultMaterial",
			"primitives":[
				{
					"attributes":{
						"POSITION":0,
						"NORMAL":1,
						"TEXCOORD_0":2
					},
					"indices":3,
					"material":0
				}
			]
		},
		{
			"name":"defaultMaterial.002",
			"primitives":[
				{
					"attributes":{
						"POSITION":4,
						"NORMAL":5,
						"TEXCOORD_0":6
					},
					"indices":7,
					"material":1
				}
			]
		},
		{
			"name":"defaultMaterial.001",
			"primitives":[
				{
					"attributes":{
						"POSITION":8,
						"NORMAL":9,
						"TEXCOORD_0":10
					},
					"indices":11,
					"material":2
				}
			]
		}
	],
	"textures":[
		{
			"sampler":0,
			"source":0
		},
		{
			"sampler":0,
			"source":1
		},
		{
			"sampler":0,
			"source":2
		},
		{
			"sampler":0,
			"source":3
		},
		{
			"sampler":0,
			"source":4
		},
		{
			"sampler":0,
			"source":5
		},
		{
			"sampler":0,
			"source":6
		},
		{
			"sampler":0,
			"source":7
		},
		{
			"sampler":0,
			"source":8
		},
		{
			"sampler":0,
			"source":9
		}
	],
	"images":[
		{
			"mimeType":"image/png",
			"name":"OldStreetLight_normal",
			"uri":"textures/OldStreetLight_normal.png"
		},
		{
			"mimeType":"image/jpeg",
			"name":"OldStreetLight_baseColor",
			"uri":"textures/OldStreetLight_baseColor.jpg"
		},
		{
			"mimeType":"image/png",
			"name":"OldStreetLight_metallicRoughness",
			"uri":"textures/OldStreetLight_metallicRoughness.png"
		},
		{
			"mimeType":"image/png",
			"name":"StreepLampTop_normal",
			"uri":"textures/StreepLampTop_normal.png"
		},
		{
			"mimeType":"image/jpeg",
			"name":"StreepLampTop_baseColor",
			"uri":"textures/StreepLampTop_baseColor.jpg"
		},
		{
			"mimeType":"image/png",
			"name":"StreepLampTop_metallicRoughness",
			"uri":"textures/StreepLampTop_metallicRoughness.png"
		},
		{
			"mimeType":"image/jpeg",
			"name":"WhiteSidingWindow_emissive",
			"uri":"textures/WhiteSidingWindow_emissive.jpg"
		},
		{
			"mimeType":"image/png",
			"name":"WhiteSidingWindow_normal",
			"uri":"textures/WhiteSidingWindow_normal.png"
		},
		{
			"mimeType":"image/png",
			"name":"WhiteSidingWindow_baseColor",
			"uri":"textures/WhiteSidingWindow_baseColor.png"
		},
		{
			"mimeType":"image/png",
			"name":"WhiteSidingWindow_metallicRoughness",
			"uri":"textures/WhiteSidingWindow_metallicRoughness.png"
		}
	],
	"accessors":[
		{
			"bufferView":0,
			"componentType":5126,
			"count":1561,
			"max":[
				16.181808471679688,
				91.06221771240234,
				16.18179702758789
			],
			"min":[
				-16.181793212890625,
				-125.0047378540039,
				-16.181808471679688
			],
			"type":"VEC3"
		},
		{
			"bufferView":1,
			"componentType":5126,
			"count":1561,
			"type":"VEC3"
		},
		{
			"bufferView":2,
			"componentType":5126,
			"count":1561,
			"type":"VEC2"
		},
		{
			"bufferView":3,
			"componentType":5123,
			"count":5316,
			"type":"SCALAR"
		},
		{
			"bufferView":4,
			"componentType":5126,
			"count":1016,
			"max":[
				10.802128791809082,
				125.89564514160156,
				10.802109718322754
			],
			"min":[
				-10.802129745483398,
				90.81855010986328,
				-10.802149772644043
			],
			"type":"VEC3"
		},
		{
			"bufferView":5,
			"componentType":5126,
			"count":1016,
			"type":"VEC3"
		},
		{
			"bufferView":6,
			"componentType":5126,
			"count":1016,
			"type":"VEC2"
		},
		{
			"bufferView":7,
			"componentType":5123,
			"count":3156,
			"type":"SCALAR"
		},
		{
			"bufferView":8,
			"componentType":5126,
			"count":16,
			"max":[
				9.165468215942383,
				107.7872543334961,
				9.165451049804688
			],
			"min":[
				-9.165467262268066,
				90.81855010986328,
				-9.165485382080078
			],
			"type":"VEC3"
		},
		{
			"bufferView":9,
			"componentType":5126,
			"count":16,
			"type":"VEC3"
		},
		{
			"bufferView":10,
			"componentType":5126,
			"count":16,
			"type":"VEC2"
		},
		{
			"bufferView":11,
			"componentType":5123,
			"count":24,
			"type":"SCALAR"
		}
	],
	"bufferViews":[
		{
			"buffer":0,
			"byteLength":18732,
			"byteOffset":0,
			"target":34962
		},
		{
			"buffer":0,
			"byteLength":18732,
			"byteOffset":18732,
			"target":34962
		},
		{
			"buffer":0,
			"byteLength":12488,
			"byteOffset":37464,
			"target":34962
		},
		{
			"buffer":0,
			"byteLength":10632,
			"byteOffset":49952,
			"target":34963
		},
		{
			"buffer":0,
			"byteLength":12192,
			"byteOffset":60584,
			"target":34962
		},
		{
			"buffer":0,
			"byteLength":12192,
			"byteOffset":72776,
			"target":34962
		},
		{
			"buffer":0,
			"byteLength":8128,
			"byteOffset":84968,
			"target":34962
		},
		{
			"buffer":0,
			"byteLength":6312,
			"byteOffset":93096,
			"target":34963
		},
		{
			"buffer":0,
			"byteLength":192,
			"byteOffset":99408,
			"target":34962
		},
		{
			"buffer":0,
			"byteLength":192,
			"byteOffset":99600,
			"target":34962
		},
		{
			"buffer":0,
			"byteLength":128,
			"byteOffset":99792,
			"target":34962
		},
		{
			"buffer":0,
			"byteLength":48,
			"byteOffset":99920,
			"target":34963
		}
	],
	"samplers":[
		{
			"magFilter":9729,
			"minFilter":9987
		}
	],
	"buffers":[
		{
			"byteLength":99968,
			"uri":"scene.bin"
		}
	]
}
