{
	"asset":{
		"generator":"Khronos glTF Blender I/O v4.3.47",
		"version":"2.0"
	},
	"scene":0,
	"scenes":[
		{
			"name":"Scene",
			"nodes":[
				0
			]
		}
	],
	"nodes":[
		{
			"mesh":0,
			"name":"tree",
			"rotation":[
				0.7071069478988647,
				0,
				0,
				0.7071066498756409
			],
			"scale":[
				0.44999998807907104,
				0.44999995827674866,
				0.44999995827674866
			],
			"translation":[
				-79.13737487792969,
				-0.5399999618530273,
				0
			]
		}
	],
	"materials":[
		{
			"name":"Meshpart1Mtl",
			"pbrMetallicRoughness":{
				"baseColorTexture":{
					"index":0
				},
				"metallicFactor":0
			}
		},
		{
			"alphaMode":"BLEND",
			"doubleSided":true,
			"name":"Mesh1Mtl",
			"pbrMetallicRoughness":{
				"baseColorTexture":{
					"index":1
				},
				"metallicFactor":0
			}
		}
	],
	"meshes":[
		{
			"name":"tree",
			"primitives":[
				{
					"attributes":{
						"POSITION":0,
						"NORMAL":1,
						"TEXCOORD_0":2
					},
					"indices":3,
					"material":0
				},
				{
					"attributes":{
						"POSITION":4,
						"NORMAL":5,
						"TEXCOORD_0":6
					},
					"indices":7,
					"material":1
				}
			]
		}
	],
	"textures":[
		{
			"sampler":0,
			"source":0
		},
		{
			"sampler":0,
			"source":1
		}
	],
	"images":[
		{
			"mimeType":"image/png",
			"name":"Meshpart1_diff",
			"uri":"textures/Meshpart1_diff.png"
		},
		{
			"mimeType":"image/png",
			"name":"Mesh1_diff",
			"uri":"textures/Mesh1_diff.png"
		}
	],
	"accessors":[
		{
			"bufferView":0,
			"componentType":5126,
			"count":936,
			"max":[
				199.12100219726562,
				32.561500549316406,
				-1.030460000038147
			],
			"min":[
				163.68299865722656,
				-25.628000259399414,
				-102.0469970703125
			],
			"type":"VEC3"
		},
		{
			"bufferView":1,
			"componentType":5126,
			"count":936,
			"type":"VEC3"
		},
		{
			"bufferView":2,
			"componentType":5126,
			"count":936,
			"type":"VEC2"
		},
		{
			"bufferView":3,
			"componentType":5123,
			"count":3198,
			"type":"SCALAR"
		},
		{
			"bufferView":4,
			"componentType":5126,
			"count":860,
			"max":[
				211.45899963378906,
				43.53099822998047,
				-18.375600814819336
			],
			"min":[
				158.0489959716797,
				-35.13410186767578,
				-101.25599670410156
			],
			"type":"VEC3"
		},
		{
			"bufferView":5,
			"componentType":5126,
			"count":860,
			"type":"VEC3"
		},
		{
			"bufferView":6,
			"componentType":5126,
			"count":860,
			"type":"VEC2"
		},
		{
			"bufferView":7,
			"componentType":5123,
			"count":1752,
			"type":"SCALAR"
		}
	],
	"bufferViews":[
		{
			"buffer":0,
			"byteLength":11232,
			"byteOffset":0,
			"target":34962
		},
		{
			"buffer":0,
			"byteLength":11232,
			"byteOffset":11232,
			"target":34962
		},
		{
			"buffer":0,
			"byteLength":7488,
			"byteOffset":22464,
			"target":34962
		},
		{
			"buffer":0,
			"byteLength":6396,
			"byteOffset":29952,
			"target":34963
		},
		{
			"buffer":0,
			"byteLength":10320,
			"byteOffset":36348,
			"target":34962
		},
		{
			"buffer":0,
			"byteLength":10320,
			"byteOffset":46668,
			"target":34962
		},
		{
			"buffer":0,
			"byteLength":6880,
			"byteOffset":56988,
			"target":34962
		},
		{
			"buffer":0,
			"byteLength":3504,
			"byteOffset":63868,
			"target":34963
		}
	],
	"samplers":[
		{
			"magFilter":9729,
			"minFilter":9987
		}
	],
	"buffers":[
		{
			"byteLength":67372,
			"uri":"scene.bin"
		}
	]
}
