{
	"asset":{
		"generator":"Khronos glTF Blender I/O v4.3.47",
		"version":"2.0"
	},
	"extensionsUsed":[
		"KHR_materials_transmission"
	],
	"scene":0,
	"scenes":[
		{
			"name":"Scene",
			"nodes":[
				25
			]
		}
	],
	"nodes":[
		{
			"mesh":0,
			"name":"bulb_lamp02_0.002",
			"translation":[
				7.62939453125e-06,
				-1.52587890625e-05,
				0
			]
		},
		{
			"children":[
				0
			],
			"name":"bulb.008",
			"translation":[
				-308.68304443359375,
				7.80792236328125,
				115.96214294433594
			]
		},
		{
			"mesh":1,
			"name":"case_bottom_lamp02_0.002",
			"translation":[
				7.62939453125e-06,
				-1.52587890625e-05,
				0
			]
		},
		{
			"children":[
				2
			],
			"name":"case_bottom.004",
			"translation":[
				-308.68304443359375,
				7.80792236328125,
				115.96214294433594
			]
		},
		{
			"mesh":2,
			"name":"case_top_lamp02_0.002",
			"translation":[
				7.62939453125e-06,
				-1.52587890625e-05,
				0
			]
		},
		{
			"children":[
				4
			],
			"name":"case_top.004",
			"translation":[
				-308.68304443359375,
				7.80792236328125,
				115.96214294433594
			]
		},
		{
			"mesh":3,
			"name":"glass_lamp02_0.002",
			"translation":[
				7.62939453125e-06,
				-1.52587890625e-05,
				0
			]
		},
		{
			"children":[
				6
			],
			"name":"glass.008",
			"translation":[
				-308.68304443359375,
				7.80792236328125,
				115.96214294433594
			]
		},
		{
			"mesh":4,
			"name":"sides1_lamp02_0.002",
			"translation":[
				7.62939453125e-06,
				-1.52587890625e-05,
				0
			]
		},
		{
			"children":[
				8
			],
			"name":"sides1.002",
			"translation":[
				-308.68304443359375,
				7.80792236328125,
				115.96214294433594
			]
		},
		{
			"mesh":5,
			"name":"sides2_lamp02_0.002",
			"translation":[
				7.62939453125e-06,
				-1.52587890625e-05,
				0
			]
		},
		{
			"children":[
				10
			],
			"name":"sides2.002",
			"translation":[
				-308.68304443359375,
				7.80792236328125,
				115.96214294433594
			]
		},
		{
			"mesh":6,
			"name":"sides3_lamp02_0.002",
			"translation":[
				7.62939453125e-06,
				-1.52587890625e-05,
				0
			]
		},
		{
			"children":[
				12
			],
			"name":"sides3.002",
			"translation":[
				-308.68304443359375,
				7.80792236328125,
				115.96214294433594
			]
		},
		{
			"mesh":7,
			"name":"sides4_lamp02_0.002",
			"translation":[
				7.62939453125e-06,
				-1.52587890625e-05,
				0
			]
		},
		{
			"children":[
				14
			],
			"name":"sides4.002",
			"translation":[
				-308.68304443359375,
				7.80792236328125,
				115.96214294433594
			]
		},
		{
			"mesh":8,
			"name":"sides5_lamp02_0.002",
			"translation":[
				7.62939453125e-06,
				-1.52587890625e-05,
				0
			]
		},
		{
			"children":[
				16
			],
			"name":"sides5.002",
			"translation":[
				-308.68304443359375,
				7.80792236328125,
				115.96214294433594
			]
		},
		{
			"mesh":9,
			"name":"sides6_lamp02_0.002",
			"translation":[
				7.62939453125e-06,
				-1.52587890625e-05,
				0
			]
		},
		{
			"children":[
				18
			],
			"name":"sides6.002",
			"translation":[
				-308.68304443359375,
				7.80792236328125,
				115.96214294433594
			]
		},
		{
			"children":[
				1,
				3,
				5,
				7,
				9,
				11,
				13,
				15,
				17,
				19
			],
			"name":"lamp16",
			"scale":[
				0.027647556737065315,
				0.027647554874420166,
				0.027647554874420166
			],
			"translation":[
				12.012999534606934,
				3.6993813514709473,
				4.06947135925293
			]
		},
		{
			"mesh":10,
			"name":"pole_single_02_pole_single_2_0",
			"translation":[
				0,
				0,
				-7.62939453125e-06
			]
		},
		{
			"children":[
				21
			],
			"name":"pole_single_02",
			"scale":[
				0.037722278386354446,
				0.037722278386354446,
				0.037722278386354446
			],
			"translation":[
				-7.247751712799072,
				-0.035081647336483,
				2.9806149005889893
			]
		},
		{
			"children":[
				20,
				22
			],
			"name":"RootNode"
		},
		{
			"children":[
				23
			],
			"name":"24ff02b784334ec5a256ad9bbd6111a2.fbx",
			"rotation":[
				0.70710688829422,
				0,
				0,
				0.7071066498756409
			],
			"scale":[
				0.30480003356933594,
				0.30480003356933594,
				0.30480003356933594
			]
		},
		{
			"children":[
				24
			],
			"name":"Sketchfab_model",
			"rotation":[
				-0.7071069478988647,
				0,
				0,
				0.7071066498756409
			],
			"scale":[
				1.7129582166671753,
				1.7129584550857544,
				1.7129584550857544
			]
		}
	],
	"materials":[
		{
			"alphaMode":"BLEND",
			"doubleSided":true,
			"emissiveFactor":[
				1,
				1,
				1
			],
			"emissiveTexture":{
				"index":0
			},
			"extensions":{
				"KHR_materials_transmission":{
					"transmissionFactor":1,
					"transmissionTexture":{
						"index":1
					}
				}
			},
			"name":"lamp02",
			"normalTexture":{
				"index":2
			},
			"pbrMetallicRoughness":{
				"baseColorTexture":{
					"index":3
				},
				"metallicRoughnessTexture":{
					"index":4
				}
			}
		},
		{
			"doubleSided":true,
			"name":"pole_single_2",
			"normalTexture":{
				"index":5
			},
			"pbrMetallicRoughness":{
				"baseColorTexture":{
					"index":6
				},
				"metallicRoughnessTexture":{
					"index":7
				}
			}
		}
	],
	"meshes":[
		{
			"name":"bulb_lamp02_0.002",
			"primitives":[
				{
					"attributes":{
						"POSITION":0,
						"NORMAL":1,
						"TEXCOORD_0":2
					},
					"indices":3,
					"material":0
				}
			]
		},
		{
			"name":"case_bottom_lamp02_0.002",
			"primitives":[
				{
					"attributes":{
						"POSITION":4,
						"NORMAL":5,
						"TEXCOORD_0":6
					},
					"indices":7,
					"material":0
				}
			]
		},
		{
			"name":"case_top_lamp02_0.002",
			"primitives":[
				{
					"attributes":{
						"POSITION":8,
						"NORMAL":9,
						"TEXCOORD_0":10
					},
					"indices":11,
					"material":0
				}
			]
		},
		{
			"name":"glass_lamp02_0.002",
			"primitives":[
				{
					"attributes":{
						"POSITION":12,
						"NORMAL":13,
						"TEXCOORD_0":14
					},
					"indices":15,
					"material":0
				}
			]
		},
		{
			"name":"sides1_lamp02_0.002",
			"primitives":[
				{
					"attributes":{
						"POSITION":16,
						"NORMAL":17,
						"TEXCOORD_0":18
					},
					"indices":19,
					"material":0
				}
			]
		},
		{
			"name":"sides2_lamp02_0.002",
			"primitives":[
				{
					"attributes":{
						"POSITION":20,
						"NORMAL":21,
						"TEXCOORD_0":22
					},
					"indices":23,
					"material":0
				}
			]
		},
		{
			"name":"sides3_lamp02_0.002",
			"primitives":[
				{
					"attributes":{
						"POSITION":24,
						"NORMAL":25,
						"TEXCOORD_0":26
					},
					"indices":27,
					"material":0
				}
			]
		},
		{
			"name":"sides4_lamp02_0.002",
			"primitives":[
				{
					"attributes":{
						"POSITION":28,
						"NORMAL":29,
						"TEXCOORD_0":30
					},
					"indices":31,
					"material":0
				}
			]
		},
		{
			"name":"sides5_lamp02_0.002",
			"primitives":[
				{
					"attributes":{
						"POSITION":32,
						"NORMAL":33,
						"TEXCOORD_0":34
					},
					"indices":35,
					"material":0
				}
			]
		},
		{
			"name":"sides6_lamp02_0.002",
			"primitives":[
				{
					"attributes":{
						"POSITION":36,
						"NORMAL":37,
						"TEXCOORD_0":38
					},
					"indices":39,
					"material":0
				}
			]
		},
		{
			"name":"pole_single_02_pole_single_2_0",
			"primitives":[
				{
					"attributes":{
						"POSITION":40,
						"NORMAL":41,
						"TEXCOORD_0":42
					},
					"indices":43,
					"material":1
				}
			]
		}
	],
	"textures":[
		{
			"sampler":0,
			"source":0
		},
		{
			"sampler":0,
			"source":1
		},
		{
			"sampler":0,
			"source":2
		},
		{
			"sampler":0,
			"source":3
		},
		{
			"sampler":0,
			"source":4
		},
		{
			"sampler":0,
			"source":5
		},
		{
			"sampler":0,
			"source":6
		},
		{
			"sampler":0,
			"source":7
		}
	],
	"images":[
		{
			"mimeType":"image/png",
			"name":"lamp02_emissive",
			"uri":"lamp02_emissive.png"
		},
		{
			"mimeType":"image/png",
			"name":"lamp02_transmission",
			"uri":"lamp02_transmission.png"
		},
		{
			"mimeType":"image/png",
			"name":"lamp02_normal",
			"uri":"lamp02_normal.png"
		},
		{
			"mimeType":"image/png",
			"name":"lamp02_baseColor",
			"uri":"lamp02_baseColor.png"
		},
		{
			"mimeType":"image/png",
			"name":"lamp02_metallicRoughness",
			"uri":"lamp02_metallicRoughness.png"
		},
		{
			"mimeType":"image/png",
			"name":"pole_single_2_normal",
			"uri":"pole_single_2_normal.png"
		},
		{
			"mimeType":"image/png",
			"name":"pole_single_2_baseColor",
			"uri":"pole_single_2_baseColor.png"
		},
		{
			"mimeType":"image/png",
			"name":"pole_single_2_metallicRoughness",
			"uri":"pole_single_2_metallicRoughness.png"
		}
	],
	"accessors":[
		{
			"bufferView":0,
			"componentType":5126,
			"count":372,
			"max":[
				-187.25009155273438,
				16.55001449584961,
				-152.02188110351562
			],
			"min":[
				-194.3292236328125,
				7.419868469238281,
				-159.10101318359375
			],
			"type":"VEC3"
		},
		{
			"bufferView":1,
			"componentType":5126,
			"count":372,
			"type":"VEC3"
		},
		{
			"bufferView":2,
			"componentType":5126,
			"count":372,
			"type":"VEC2"
		},
		{
			"bufferView":3,
			"componentType":5123,
			"count":480,
			"type":"SCALAR"
		},
		{
			"bufferView":4,
			"componentType":5126,
			"count":96,
			"max":[
				-183.46609497070312,
				8.28585147857666,
				-149.21910095214844
			],
			"min":[
				-198.11322021484375,
				6.550936698913574,
				-161.9038848876953
			],
			"type":"VEC3"
		},
		{
			"bufferView":5,
			"componentType":5126,
			"count":96,
			"type":"VEC3"
		},
		{
			"bufferView":6,
			"componentType":5126,
			"count":96,
			"type":"VEC2"
		},
		{
			"bufferView":7,
			"componentType":5123,
			"count":216,
			"type":"SCALAR"
		},
		{
			"bufferView":8,
			"componentType":5126,
			"count":283,
			"max":[
				-179.89797973632812,
				35.30672836303711,
				-146.1290283203125
			],
			"min":[
				-201.68133544921875,
				23.39162826538086,
				-164.99395751953125
			],
			"type":"VEC3"
		},
		{
			"bufferView":9,
			"componentType":5126,
			"count":283,
			"type":"VEC3"
		},
		{
			"bufferView":10,
			"componentType":5126,
			"count":283,
			"type":"VEC2"
		},
		{
			"bufferView":11,
			"componentType":5123,
			"count":576,
			"type":"SCALAR"
		},
		{
			"bufferView":12,
			"componentType":5126,
			"count":38,
			"max":[
				-180.64181518554688,
				24.119956970214844,
				-146.77320861816406
			],
			"min":[
				-200.9375,
				8.233983993530273,
				-164.3497772216797
			],
			"type":"VEC3"
		},
		{
			"bufferView":13,
			"componentType":5126,
			"count":38,
			"type":"VEC3"
		},
		{
			"bufferView":14,
			"componentType":5126,
			"count":38,
			"type":"VEC2"
		},
		{
			"bufferView":15,
			"componentType":5123,
			"count":72,
			"type":"SCALAR"
		},
		{
			"bufferView":16,
			"componentType":5126,
			"count":92,
			"max":[
				-180.6356964111328,
				23.722671508789062,
				-155.10287475585938
			],
			"min":[
				-184.91744995117188,
				8.076800346374512,
				-156.14642333984375
			],
			"type":"VEC3"
		},
		{
			"bufferView":17,
			"componentType":5126,
			"count":92,
			"type":"VEC3"
		},
		{
			"bufferView":18,
			"componentType":5126,
			"count":92,
			"type":"VEC2"
		},
		{
			"bufferView":19,
			"componentType":5123,
			"count":108,
			"type":"SCALAR"
		},
		{
			"bufferView":20,
			"componentType":5126,
			"count":77,
			"max":[
				-185.46372985839844,
				23.722671508789062,
				-146.7994842529297
			],
			"min":[
				-187.9931182861328,
				8.076800346374512,
				-150.50759887695312
			],
			"type":"VEC3"
		},
		{
			"bufferView":21,
			"componentType":5126,
			"count":77,
			"type":"VEC3"
		},
		{
			"bufferView":22,
			"componentType":5126,
			"count":77,
			"type":"VEC2"
		},
		{
			"bufferView":23,
			"componentType":5123,
			"count":108,
			"type":"SCALAR"
		},
		{
			"bufferView":24,
			"componentType":5126,
			"count":91,
			"max":[
				-196.661865234375,
				23.722671508789062,
				-154.9765625
			],
			"min":[
				-200.94361877441406,
				8.076800346374512,
				-156.02011108398438
			],
			"type":"VEC3"
		},
		{
			"bufferView":25,
			"componentType":5126,
			"count":91,
			"type":"VEC3"
		},
		{
			"bufferView":26,
			"componentType":5126,
			"count":91,
			"type":"VEC2"
		},
		{
			"bufferView":27,
			"componentType":5123,
			"count":108,
			"type":"SCALAR"
		},
		{
			"bufferView":28,
			"componentType":5126,
			"count":75,
			"max":[
				-185.5731201171875,
				23.722671508789062,
				-160.6785430908203
			],
			"min":[
				-188.10250854492188,
				8.076800346374512,
				-164.38665771484375
			],
			"type":"VEC3"
		},
		{
			"bufferView":29,
			"componentType":5126,
			"count":75,
			"type":"VEC3"
		},
		{
			"bufferView":30,
			"componentType":5126,
			"count":75,
			"type":"VEC2"
		},
		{
			"bufferView":31,
			"componentType":5123,
			"count":108,
			"type":"SCALAR"
		},
		{
			"bufferView":32,
			"componentType":5126,
			"count":72,
			"max":[
				-193.476806640625,
				23.722671508789062,
				-146.736328125
			],
			"min":[
				-196.00619506835938,
				8.076800346374512,
				-150.44444274902344
			],
			"type":"VEC3"
		},
		{
			"bufferView":33,
			"componentType":5126,
			"count":72,
			"type":"VEC3"
		},
		{
			"bufferView":34,
			"componentType":5126,
			"count":72,
			"type":"VEC2"
		},
		{
			"bufferView":35,
			"componentType":5123,
			"count":108,
			"type":"SCALAR"
		},
		{
			"bufferView":36,
			"componentType":5126,
			"count":67,
			"max":[
				-193.58619689941406,
				23.722671508789062,
				-160.61538696289062
			],
			"min":[
				-196.11558532714844,
				8.076800346374512,
				-164.32350158691406
			],
			"type":"VEC3"
		},
		{
			"bufferView":37,
			"componentType":5126,
			"count":67,
			"type":"VEC3"
		},
		{
			"bufferView":38,
			"componentType":5126,
			"count":67,
			"type":"VEC2"
		},
		{
			"bufferView":39,
			"componentType":5123,
			"count":108,
			"type":"SCALAR"
		},
		{
			"bufferView":40,
			"componentType":5126,
			"count":3147,
			"max":[
				147.56863403320312,
				145.5392303466797,
				5.985812187194824
			],
			"min":[
				94.83995056152344,
				7.216773986816406,
				-5.985812187194824
			],
			"type":"VEC3"
		},
		{
			"bufferView":41,
			"componentType":5126,
			"count":3147,
			"type":"VEC3"
		},
		{
			"bufferView":42,
			"componentType":5126,
			"count":3147,
			"type":"VEC2"
		},
		{
			"bufferView":43,
			"componentType":5123,
			"count":10950,
			"type":"SCALAR"
		}
	],
	"bufferViews":[
		{
			"buffer":0,
			"byteLength":4464,
			"byteOffset":0,
			"target":34962
		},
		{
			"buffer":0,
			"byteLength":4464,
			"byteOffset":4464,
			"target":34962
		},
		{
			"buffer":0,
			"byteLength":2976,
			"byteOffset":8928,
			"target":34962
		},
		{
			"buffer":0,
			"byteLength":960,
			"byteOffset":11904,
			"target":34963
		},
		{
			"buffer":0,
			"byteLength":1152,
			"byteOffset":12864,
			"target":34962
		},
		{
			"buffer":0,
			"byteLength":1152,
			"byteOffset":14016,
			"target":34962
		},
		{
			"buffer":0,
			"byteLength":768,
			"byteOffset":15168,
			"target":34962
		},
		{
			"buffer":0,
			"byteLength":432,
			"byteOffset":15936,
			"target":34963
		},
		{
			"buffer":0,
			"byteLength":3396,
			"byteOffset":16368,
			"target":34962
		},
		{
			"buffer":0,
			"byteLength":3396,
			"byteOffset":19764,
			"target":34962
		},
		{
			"buffer":0,
			"byteLength":2264,
			"byteOffset":23160,
			"target":34962
		},
		{
			"buffer":0,
			"byteLength":1152,
			"byteOffset":25424,
			"target":34963
		},
		{
			"buffer":0,
			"byteLength":456,
			"byteOffset":26576,
			"target":34962
		},
		{
			"buffer":0,
			"byteLength":456,
			"byteOffset":27032,
			"target":34962
		},
		{
			"buffer":0,
			"byteLength":304,
			"byteOffset":27488,
			"target":34962
		},
		{
			"buffer":0,
			"byteLength":144,
			"byteOffset":27792,
			"target":34963
		},
		{
			"buffer":0,
			"byteLength":1104,
			"byteOffset":27936,
			"target":34962
		},
		{
			"buffer":0,
			"byteLength":1104,
			"byteOffset":29040,
			"target":34962
		},
		{
			"buffer":0,
			"byteLength":736,
			"byteOffset":30144,
			"target":34962
		},
		{
			"buffer":0,
			"byteLength":216,
			"byteOffset":30880,
			"target":34963
		},
		{
			"buffer":0,
			"byteLength":924,
			"byteOffset":31096,
			"target":34962
		},
		{
			"buffer":0,
			"byteLength":924,
			"byteOffset":32020,
			"target":34962
		},
		{
			"buffer":0,
			"byteLength":616,
			"byteOffset":32944,
			"target":34962
		},
		{
			"buffer":0,
			"byteLength":216,
			"byteOffset":33560,
			"target":34963
		},
		{
			"buffer":0,
			"byteLength":1092,
			"byteOffset":33776,
			"target":34962
		},
		{
			"buffer":0,
			"byteLength":1092,
			"byteOffset":34868,
			"target":34962
		},
		{
			"buffer":0,
			"byteLength":728,
			"byteOffset":35960,
			"target":34962
		},
		{
			"buffer":0,
			"byteLength":216,
			"byteOffset":36688,
			"target":34963
		},
		{
			"buffer":0,
			"byteLength":900,
			"byteOffset":36904,
			"target":34962
		},
		{
			"buffer":0,
			"byteLength":900,
			"byteOffset":37804,
			"target":34962
		},
		{
			"buffer":0,
			"byteLength":600,
			"byteOffset":38704,
			"target":34962
		},
		{
			"buffer":0,
			"byteLength":216,
			"byteOffset":39304,
			"target":34963
		},
		{
			"buffer":0,
			"byteLength":864,
			"byteOffset":39520,
			"target":34962
		},
		{
			"buffer":0,
			"byteLength":864,
			"byteOffset":40384,
			"target":34962
		},
		{
			"buffer":0,
			"byteLength":576,
			"byteOffset":41248,
			"target":34962
		},
		{
			"buffer":0,
			"byteLength":216,
			"byteOffset":41824,
			"target":34963
		},
		{
			"buffer":0,
			"byteLength":804,
			"byteOffset":42040,
			"target":34962
		},
		{
			"buffer":0,
			"byteLength":804,
			"byteOffset":42844,
			"target":34962
		},
		{
			"buffer":0,
			"byteLength":536,
			"byteOffset":43648,
			"target":34962
		},
		{
			"buffer":0,
			"byteLength":216,
			"byteOffset":44184,
			"target":34963
		},
		{
			"buffer":0,
			"byteLength":37764,
			"byteOffset":44400,
			"target":34962
		},
		{
			"buffer":0,
			"byteLength":37764,
			"byteOffset":82164,
			"target":34962
		},
		{
			"buffer":0,
			"byteLength":25176,
			"byteOffset":119928,
			"target":34962
		},
		{
			"buffer":0,
			"byteLength":21900,
			"byteOffset":145104,
			"target":34963
		}
	],
	"samplers":[
		{
			"magFilter":9729,
			"minFilter":9987
		}
	],
	"buffers":[
		{
			"byteLength":167004,
			"uri":"single_lamp.bin"
		}
	]
}
