{
	"asset":{
		"generator":"Khronos glTF Blender I/O v4.3.47",
		"version":"2.0"
	},
	"scene":0,
	"scenes":[
		{
			"name":"Scene",
			"nodes":[
				0
			]
		}
	],
	"nodes":[
		{
			"mesh":0,
			"name":"tree",
			"rotation":[
				0.70710688829422,
				0,
				0,
				0.7071066498756409
			],
			"scale":[
				0.550000011920929,
				0.5499999523162842,
				0.5499999523162842
			],
			"translation":[
				-104.46890258789062,
				-0.5399999618530273,
				10.653087615966797
			]
		}
	],
	"materials":[
		{
			"name":"Meshpart1Mtl",
			"pbrMetallicRoughness":{
				"baseColorTexture":{
					"index":0
				},
				"metallicFactor":0
			}
		},
		{
			"alphaMode":"BLEND",
			"doubleSided":true,
			"name":"Mesh1Mtl",
			"pbrMetallicRoughness":{
				"baseColorTexture":{
					"index":1
				},
				"metallicFactor":0
			}
		}
	],
	"meshes":[
		{
			"name":"tree",
			"primitives":[
				{
					"attributes":{
						"POSITION":0,
						"NORMAL":1,
						"TEXCOORD_0":2
					},
					"indices":3,
					"material":0
				},
				{
					"attributes":{
						"POSITION":4,
						"NORMAL":5,
						"TEXCOORD_0":6
					},
					"indices":7,
					"material":1
				}
			]
		}
	],
	"textures":[
		{
			"sampler":0,
			"source":0
		},
		{
			"sampler":0,
			"source":1
		}
	],
	"images":[
		{
			"mimeType":"image/png",
			"name":"Meshpart1_diff",
			"uri":"textures/Meshpart1_diff.png"
		},
		{
			"mimeType":"image/png",
			"name":"Mesh1_diff",
			"uri":"textures/Mesh1_diff.png"
		}
	],
	"accessors":[
		{
			"bufferView":0,
			"componentType":5126,
			"count":468,
			"max":[
				199.12100219726562,
				-12.553000450134277,
				-1.030460000038147
			],
			"min":[
				182.052001953125,
				-25.628000259399414,
				-102.0469970703125
			],
			"type":"VEC3"
		},
		{
			"bufferView":1,
			"componentType":5126,
			"count":468,
			"type":"VEC3"
		},
		{
			"bufferView":2,
			"componentType":5126,
			"count":468,
			"type":"VEC2"
		},
		{
			"bufferView":3,
			"componentType":5123,
			"count":1599,
			"type":"SCALAR"
		},
		{
			"bufferView":4,
			"componentType":5126,
			"count":430,
			"max":[
				211.45899963378906,
				0.9448390007019043,
				-21.67770004272461
			],
			"min":[
				175.11000061035156,
				-35.13410186767578,
				-101.25599670410156
			],
			"type":"VEC3"
		},
		{
			"bufferView":5,
			"componentType":5126,
			"count":430,
			"type":"VEC3"
		},
		{
			"bufferView":6,
			"componentType":5126,
			"count":430,
			"type":"VEC2"
		},
		{
			"bufferView":7,
			"componentType":5123,
			"count":876,
			"type":"SCALAR"
		}
	],
	"bufferViews":[
		{
			"buffer":0,
			"byteLength":5616,
			"byteOffset":0,
			"target":34962
		},
		{
			"buffer":0,
			"byteLength":5616,
			"byteOffset":5616,
			"target":34962
		},
		{
			"buffer":0,
			"byteLength":3744,
			"byteOffset":11232,
			"target":34962
		},
		{
			"buffer":0,
			"byteLength":3198,
			"byteOffset":14976,
			"target":34963
		},
		{
			"buffer":0,
			"byteLength":5160,
			"byteOffset":18176,
			"target":34962
		},
		{
			"buffer":0,
			"byteLength":5160,
			"byteOffset":23336,
			"target":34962
		},
		{
			"buffer":0,
			"byteLength":3440,
			"byteOffset":28496,
			"target":34962
		},
		{
			"buffer":0,
			"byteLength":1752,
			"byteOffset":31936,
			"target":34963
		}
	],
	"samplers":[
		{
			"magFilter":9729,
			"minFilter":9987
		}
	],
	"buffers":[
		{
			"byteLength":33688,
			"uri":"scene.bin"
		}
	]
}
